<svg xmlns="http://www.w3.org/2000/svg" viewBox="0 0 15 15" height="15" width="15"><path d="M7.53.004C4.963.004 3.424 1.28 2.753 2.54c-.67 1.263-.62 2.51-.62 2.51l1.9-.058s-.012-.787.398-1.558c.41-.772 1.095-1.53 3.1-1.53 2.017 0 2.795.76 3.26 1.516.463.757.495 1.504.495 1.504l.035 3.084H2.16V15h11.06V9.537h.018l-.017-1.53-.034-3.134v-.01s-.032-1.222-.776-2.435C11.667 1.215 10.092.004 7.53.004z"/><path d="M.19 16.386L15.366-2.207" fill="#fff" fill-rule="evenodd" stroke="#fff" stroke-width="4"/><path d="M-.406 17.24L14.77-1.35" fill="none" stroke="#000" stroke-width="2"/></svg>