<svg xmlns="http://www.w3.org/2000/svg" width="210mm" height="297mm" viewBox="0 0 210 297"><path d="M82.818 193.62c-3.1-1.857-5.05-4.75-5.704-8.453l-.364-2.07-16.457-.1-16.457-.1-2.47-1.236c-3.323-1.66-7.68-5.99-9.23-9.173-2.038-4.187-2.327-6.044-2.14-13.757.177-7.344.76-11.103 2.55-16.43 2.38-7.09 6.755-12.353 12.494-15.026l2.406-1.12-1.002-2.145c-1.696-3.632-2.42-7.25-2.426-12.13-.008-6.834 1.446-11.734 5.022-16.916 3.528-5.114 8.243-8.628 14.375-10.716 3.007-1.024 3.86-1.156 8.29-1.283 7.074-.203 12.258 1.096 17.338 4.346 5.91 3.78 10.854 10.985 12.267 17.872 1.26 6.134.5 13.75-1.88 18.84l-1.007 2.156 2.454 1.137c2.857 1.324 6.635 4.484 8.4 7.026 1.23 1.775 1.86 2.16 2.315 1.423 1.048-1.696 8.05-2.37 10.95-1.054 1.902.863 3.696 2.695 4.732 4.83.97 2.004 1.346 6.25.745 8.43-.342 1.232-.303 1.412.406 1.9 2.92 2.008 4.136 4.917 4.4 10.533.225 4.823-.247 6.39-2.57 8.53l-1.56 1.44h-3.222c-2.924 0-3.198.056-2.98.617 1.11 2.85 1.423 5.147 1.423 10.495 0 5.21-.063 5.76-.81 7.16-1.16 2.173-3.06 4.15-4.792 4.99-1.45.7-2.065.726-17.88.725-16.003 0-16.41-.02-17.617-.74zm31.933-5.413c.768-.32 1.624-1.136 2.312-2.204 1.08-1.678 1.09-1.737.93-5.4-.212-4.818-1.19-7.638-3.44-9.91-2.212-2.236-3.015-2.37-5.23-.88-2.894 1.947-4.76 2.4-9.312 2.265-3.46-.103-4.23-.244-6.078-1.11-1.164-.544-2.453-1.306-2.865-1.693-.97-.91-2.1-.638-3.968.962-2.46 2.103-3.928 6.277-3.963 11.255-.025 3.592 1.164 5.872 3.562 6.828.525.21 6.116.36 13.856.374 10.547.018 13.204-.073 14.195-.487zm-36.625-15.1c.2-.825.483-1.778.627-2.118.238-.563-.03-.618-2.998-.618-3.788 0-4.9-.487-6.557-2.877-.95-1.37-1.027-1.735-1.136-5.397-.083-2.833.047-4.554.468-6.18.61-2.353 2.107-4.882 3.448-5.822.74-.518.788-.81.788-4.69v-4.138l-3.545-.4c-4.273-.485-10.518-2.726-12.155-4.363-.097-.097-.852-.7-1.677-1.34l-1.5-1.165-2.204.6c-1.212.332-2.454.816-2.76 1.078-.307.26-.74.475-.963.475-.222 0-1.29.898-2.37 1.996-4.49 4.562-7.118 13.413-6.81 22.942.115 3.574.263 4.44 1.046 6.105 1.82 3.867 4.966 6.417 8.697 7.045.915.154 7.867.3 15.45.322l13.787.04zm25.996-7.657c4.885-2.093 7.473-7.303 6.055-12.182-1.135-3.904-5.53-7.238-9.542-7.238-2.05 0-4.618 1.02-6.304 2.503-2.43 2.14-3.46 4.116-3.67 7.04-.154 2.152-.062 2.655.797 4.353 2.594 5.127 8.044 7.505 12.664 5.524zm-20.166-.91l1.922-1.25-.636-1.838c-.35-1.012-.64-2.673-.647-3.692l-.01-1.852h-1.525c-1.932 0-4.818-.85-5.972-1.757-.89-.7-.89-.7-1.823.034-1.772 1.394-2.483 3.33-2.49 6.78-.008 2.983.034 3.155.98 3.97.91.782 1.29.852 4.635.852 3.575 0 3.68-.024 5.566-1.247zm43.097.31c1.185-1.186 1.423-2.15 1.158-4.687-.276-2.638-1.323-5.035-2.596-5.94-1.002-.716-1.026-.716-1.885-.05-1.115.867-3.967 1.735-5.695 1.735h-1.347l-.012 1.852c-.006 1.02-.305 2.704-.665 3.744l-.653 1.892 1.056.578c.582.317 1.397.85 1.813 1.183.6.48 1.492.608 4.323.617 3.398.01 3.612-.032 4.505-.925zm-42.68-14.22c.536-.204 1.234-1.012 1.752-2.028.473-.93 1.277-2.166 1.786-2.748.993-1.135.988-1.79-.034-3.95-1.044-2.21-4.016-3.708-6.244-3.15-2.217.558-4.456 3.655-4.456 6.164 0 2.59 3.163 6.05 5.527 6.05.428 0 1.18-.15 1.67-.338zm36.644-.788c1.532-1.09 2.85-4.154 2.55-5.928-.667-3.945-4.752-6.41-7.913-4.775-1.377.71-2.75 2.428-3.176 3.973-.372 1.35-.403 1.277 1.418 3.348.307.35.926 1.42 1.376 2.38.45.96 1.07 1.82 1.38 1.91 1.06.313 3.31-.156 4.366-.908zm-24.79-9.32c1.067-.263 2.78-.48 3.807-.483l1.868-.007-.985-1.25c-1.265-1.606-3.78-3.158-6.63-4.094l-2.253-.74-1.06.836c-1.297 1.027-1.333 1.374-.243 2.398.47.44 1.194 1.593 1.61 2.56.597 1.388.88 1.705 1.35 1.507.328-.137 1.47-.465 2.537-.728zm-17.393-9.476c6.35-2.015 11.695-7.603 13.655-14.272.707-2.403.726-7.32.04-9.9-.85-3.187-2.66-6.326-4.977-8.627-2.805-2.785-3.833-3.593-5.436-4.27-2.622-1.11-4.104-1.58-6.554-2.074-2.726-.55-2.98-.544-5.872.13-1.663.388-3.555.936-4.206 1.22-.65.283-1.42.605-1.712.715-2.528.955-7.144 5.545-8.74 8.69-1.593 3.14-2.187 5.628-2.192 9.177-.012 8.86 6.147 16.878 14.99 19.51 2.89.86 7.77.728 11.005-.3z" fill="#fff"/></svg>