<svg width="40" height="40" viewBox="0 0 40 40" fill="none" xmlns="http://www.w3.org/2000/svg">
<rect width="40" height="40" rx="8" fill="#3B82F6"/>
<g clip-path="url(#clip0_728_6480)">
<path d="M11.2807 15.2297C12.2475 14.261 13.2826 13.8569 14.4468 13.9972C15.3929 14.1336 16.2639 14.5893 16.9155 15.2887L22.5706 20.9346C24.6278 22.9919 26.6427 20.977 26.6427 20.977L18.862 13.1964C17.4616 11.796 15.8638 11.1041 14.1128 11.1355C12.3342 11.189 10.7917 11.8993 9.36735 13.3164C7.94296 14.7333 7.25844 16.25 7.20309 18.0065C7.14774 19.763 7.82487 21.3885 9.24557 22.8036L17.0299 30.5806L19.0428 28.5695L11.3305 20.8571C10.632 20.2037 10.181 19.3289 10.0537 18.381C9.91164 17.2297 10.3139 16.1891 11.2807 15.2297ZM28.5376 24.907C27.5689 25.8738 26.5338 26.2779 25.3714 26.1377C24.4267 26.0071 23.5553 25.5564 22.9027 24.8609L17.2458 19.2002C15.1885 17.1448 13.1737 19.1596 13.1737 19.1596L20.9544 26.9384C22.3566 28.3407 23.9526 29.0308 25.7035 29.0012C27.484 28.9477 29.0246 28.2355 30.449 26.8185C31.8734 25.4015 32.558 23.8849 32.6096 22.1284C32.6613 20.3719 31.9878 18.7482 30.5671 17.3312L22.7865 9.54688L20.7735 11.5598L28.4877 19.2722C29.185 19.9255 29.6354 20.7994 29.7627 21.7464C29.8973 22.907 29.5044 23.9384 28.5376 24.907Z" fill="#111827"/>
</g>
<defs>
<clipPath id="clip0_728_6480">
<rect width="25.6" height="25.6" fill="white" transform="translate(7.19995 7.19922)"/>
</clipPath>
</defs>
</svg>
